<svg width="14" height="14" viewBox="0 0 14 14" fill="none" xmlns="http://www.w3.org/2000/svg">
<path d="M12.4634 10.2884C12.0254 9.85001 11.5136 9.49223 10.9515 9.23136C11.7442 8.58916 12.25 7.60919 12.25 6.51022C12.25 4.57128 10.633 2.98058 8.69398 3.01032C6.78474 3.04007 5.24651 4.59578 5.24651 6.51022C5.24651 7.60919 5.754 8.58916 6.545 9.23136C5.98273 9.49203 5.47088 9.84982 5.033 10.2884C4.07751 11.2456 3.53502 12.5091 3.50002 13.8565C3.49955 13.8752 3.50282 13.8938 3.50965 13.9111C3.51647 13.9286 3.52672 13.9444 3.53977 13.9578C3.55281 13.9712 3.5684 13.9818 3.58562 13.989C3.60284 13.9963 3.62133 14 3.64001 14H4.62001C4.69526 14 4.75826 13.9405 4.76001 13.8653C4.79326 12.8503 5.2045 11.9001 5.92725 11.1791C6.2971 10.8073 6.73701 10.5126 7.22152 10.3119C7.70604 10.1113 8.22556 10.0087 8.74998 10.0101C9.81569 10.0101 10.8184 10.4249 11.5727 11.1791C12.2937 11.9001 12.7049 12.8503 12.74 13.8653C12.7417 13.9405 12.8047 14 12.8799 14H13.8599C13.8786 14 13.8972 13.9963 13.9143 13.989C13.9316 13.9818 13.9471 13.9712 13.9602 13.9578C13.9732 13.9444 13.9835 13.9286 13.9903 13.9111C13.9971 13.8938 14.0004 13.8752 14 13.8565C13.965 12.5091 13.4225 11.2456 12.4634 10.2884ZM8.74998 8.75016C8.15149 8.75016 7.58799 8.51742 7.16624 8.09393C6.95458 7.88395 6.7874 7.63349 6.67465 7.35748C6.5619 7.08148 6.5059 6.78559 6.51 6.48748C6.51524 5.91349 6.74449 5.35876 7.14524 4.94752C7.56524 4.51703 8.12699 4.27729 8.72723 4.27029C9.3205 4.26504 9.89625 4.49603 10.3197 4.91077C10.7537 5.33601 10.9917 5.90475 10.9917 6.51022C10.9917 7.10871 10.7589 7.67044 10.3355 8.09393C10.1277 8.30269 9.88057 8.46818 9.60842 8.58082C9.33628 8.69346 9.04454 8.75102 8.74998 8.75016ZM4.36627 6.97221C4.35051 6.81996 4.34177 6.66597 4.34177 6.51022C4.34177 6.23198 4.36801 5.96074 4.41701 5.6965C4.42926 5.6335 4.39601 5.56875 4.33826 5.5425C4.10027 5.43575 3.88151 5.28876 3.69252 5.10327C3.46982 4.88733 3.29456 4.62735 3.17796 4.33991C3.06136 4.05246 3.00595 3.74387 3.01527 3.43382C3.03103 2.87208 3.25677 2.33835 3.65052 1.93585C4.08276 1.49312 4.66376 1.25162 5.2815 1.25862C5.83975 1.26387 6.37875 1.47912 6.7865 1.86061C6.92474 1.9901 7.04374 2.1336 7.14349 2.28759C7.17849 2.34184 7.24674 2.36459 7.30624 2.3436C7.61424 2.23685 7.93973 2.1616 8.27398 2.1266C8.37199 2.1161 8.42798 2.0111 8.38424 1.9236C7.81549 0.798388 6.65349 0.0214104 5.30951 0.0004106C3.36877 -0.0293384 1.75178 1.56136 1.75178 3.49856C1.75178 4.59753 2.25753 5.5775 3.05027 6.21973C2.49377 6.47697 1.98103 6.83221 1.53654 7.2767C0.577535 8.23392 0.0350433 9.49742 4.38257e-05 10.8466C-0.000423631 10.8653 0.00285245 10.8839 0.00967908 10.9012C0.0165047 10.9187 0.0267427 10.9345 0.0397904 10.9479C0.052837 10.9612 0.0684287 10.9719 0.0856462 10.9791C0.102865 10.9864 0.121359 10.9901 0.140047 10.9901H1.12178C1.19704 10.9901 1.26003 10.9306 1.26179 10.8554C1.29504 9.84041 1.70628 8.89015 2.42903 8.16918C2.94352 7.65469 3.57352 7.2977 4.26126 7.12446C4.32952 7.10696 4.37501 7.04221 4.36627 6.97221Z" fill="url(#paint0_linear_21_382)"/>
<defs>
<linearGradient id="paint0_linear_21_382" x1="-1.41239e-07" y1="-1.41233e-07" x2="14" y2="14" gradientUnits="userSpaceOnUse">
<stop stop-color="#39D0D8" stop-opacity="0.8"/>
<stop offset="1" stop-color="#39D0D8" stop-opacity="0.6"/>
</linearGradient>
</defs>
</svg>
