<svg width="15" height="10" viewBox="0 0 15 10" fill="none" xmlns="http://www.w3.org/2000/svg">
<path d="M6.30288 8.33421C6.52163 8.33421 6.71851 8.50728 6.71851 8.74522C6.71851 8.9616 6.54351 9.15623 6.30288 9.15623C6.08413 9.15623 5.88726 8.98316 5.88726 8.74522C5.88726 8.50728 6.08413 8.33421 6.30288 8.33421ZM12.7341 5.82474C12.5154 5.82474 12.3185 5.65167 12.3185 5.4137C12.3185 5.19737 12.4935 5.00267 12.7341 5.00267C12.9529 5.00267 13.1497 5.17574 13.1497 5.4137C13.1497 5.63003 12.9529 5.82474 12.7341 5.82474ZM12.7341 4.15897C12.0341 4.15897 11.4654 4.72143 11.4654 5.4137C11.4654 5.5435 11.4872 5.6733 11.531 5.8031L7.35288 8.00974C7.11226 7.6636 6.71851 7.46887 6.30288 7.46887C5.82163 7.46887 5.38413 7.75014 5.16538 8.16114L1.40288 6.21414C1.00913 5.9978 0.702879 5.37043 0.746629 4.7647C0.768504 4.46183 0.877878 4.22387 1.03101 4.13734C1.14038 4.07243 1.24976 4.09407 1.40288 4.15897L1.42476 4.18061C2.43101 4.69981 5.69038 6.3872 5.82163 6.4521C6.04038 6.53863 6.14976 6.5819 6.52163 6.40883L13.2591 2.9475C13.3685 2.90424 13.4779 2.8177 13.4779 2.66627C13.4779 2.47157 13.281 2.38504 13.281 2.38504C12.8872 2.21197 12.2966 1.93074 11.7279 1.67114C10.5029 1.10868 9.10288 0.459677 8.49038 0.135172C7.96538 -0.146056 7.52788 0.0919058 7.46226 0.135172L7.30913 0.200078C4.53101 1.58461 0.856004 3.38017 0.637254 3.50997C0.265379 3.7263 0.024754 4.18061 0.00287894 4.74307C-0.0408711 5.63003 0.418504 6.56027 1.07476 6.88477L5.05601 8.91829C5.14351 9.52402 5.69038 10 6.30288 10C7.00288 10 7.54976 9.45914 7.57163 8.76688L11.9466 6.43047C12.1654 6.60354 12.4497 6.69007 12.7341 6.69007C13.4341 6.69007 14.0029 6.1276 14.0029 5.43534C14.0029 4.72143 13.4341 4.15897 12.7341 4.15897Z" fill="#39D0D8"/>
</svg>
