<svg width="14" height="14" viewBox="0 0 14 14" fill="none" xmlns="http://www.w3.org/2000/svg">
<path d="M12.3333 6.66667H11.3333V4C11.3333 3.26667 10.7333 2.66667 10 2.66667H7.33333V1.66667C7.33333 1.22464 7.15774 0.800716 6.84518 0.488155C6.53262 0.175595 6.10869 0 5.66667 0C5.22464 0 4.80072 0.175595 4.48816 0.488155C4.17559 0.800716 4 1.22464 4 1.66667V2.66667H1.33333C0.6 2.66667 0.00666666 3.26667 0.00666666 4V6.53333H1C1.99333 6.53333 2.8 7.34 2.8 8.33333C2.8 9.32667 1.99333 10.1333 1 10.1333H0V12.6667C0 13.4 0.6 14 1.33333 14H3.86667V13C3.86667 12.0067 4.67333 11.2 5.66667 11.2C6.66 11.2 7.46667 12.0067 7.46667 13V14H10C10.7333 14 11.3333 13.4 11.3333 12.6667V10H12.3333C12.7754 10 13.1993 9.82441 13.5118 9.51184C13.8244 9.19928 14 8.77536 14 8.33333C14 7.89131 13.8244 7.46738 13.5118 7.15482C13.1993 6.84226 12.7754 6.66667 12.3333 6.66667Z" fill="url(#paint0_linear_215_29)"/>
<defs>
<linearGradient id="paint0_linear_215_29" x1="-1.41239e-07" y1="-1.41233e-07" x2="14" y2="14" gradientUnits="userSpaceOnUse">
<stop stop-color="#39D0D8" stop-opacity="0.8"/>
<stop offset="1" stop-color="#39D0D8" stop-opacity="0.6"/>
</linearGradient>
</defs>
</svg>
