<?xml version="1.0" standalone="no"?>
<!DOCTYPE svg PUBLIC "-//W3C//DTD SVG 20010904//EN"
 "http://www.w3.org/TR/2001/REC-SVG-20010904/DTD/svg10.dtd">
<svg version="1.0" xmlns="http://www.w3.org/2000/svg"
 width="250.000000pt" height="250.000000pt" viewBox="0 0 250.000000 250.000000"
 preserveAspectRatio="xMidYMid meet">
<metadata>
Created by potrace 1.16, written by Peter Selinger 2001-2019
</metadata>
<g transform="translate(0.000000,250.000000) scale(0.100000,-0.100000)"
fill="#000000" stroke="none">
<path d="M1015 2380 c-287 -61 -537 -224 -708 -465 -68 -97 -143 -254 -174
-372 -25 -90 -27 -114 -27 -288 -1 -177 1 -197 27 -289 73 -264 220 -481 432
-639 357 -266 853 -299 1240 -82 542 303 748 973 470 1525 -55 109 -108 183
-198 277 -174 182 -387 297 -625 338 -119 21 -324 18 -437 -5z m615 -349 l0
-119 -237 -5 c-260 -5 -309 -13 -419 -68 -161 -81 -279 -224 -331 -402 -11
-37 -17 -119 -20 -289 l-5 -238 -114 0 -114 0 0 253 c0 219 3 264 19 330 63
244 230 451 456 564 150 76 237 91 533 92 l232 1 0 -119z m490 -590 c0 -149
-5 -246 -15 -305 -48 -274 -215 -495 -472 -624 -153 -77 -193 -85 -490 -90
l-263 -4 0 115 0 115 238 5 c171 4 252 9 292 21 171 48 325 175 399 328 49
102 73 215 69 328 l-3 85 -308 3 c-189 1 -324 -2 -347 -8 -22 -6 -51 -25 -69
-45 -30 -34 -31 -39 -31 -125 l0 -90 240 0 c132 0 240 -4 240 -8 0 -19 -60
-100 -104 -140 -89 -81 -108 -86 -379 -90 l-238 -3 3 238 3 238 29 59 c51 103
153 185 260 206 22 4 245 8 494 9 l452 1 0 -219z"/>
</g>
</svg>
