<svg width="14" height="14" viewBox="0 0 14 14" fill="none" xmlns="http://www.w3.org/2000/svg">
<path d="M13.8715 0.12852C13.9122 0.169156 13.9445 0.21743 13.9666 0.270577C13.9886 0.323724 14 0.380699 14 0.43824C14 0.495781 13.9886 0.552757 13.9666 0.605904C13.9445 0.659051 13.9122 0.707325 13.8715 0.747961L12.4121 2.20732C12.9398 2.88687 13.2014 3.73558 13.1479 4.59428C13.0945 5.45298 12.7296 6.26267 12.1216 6.8715L11.8592 7.13398L11.8565 7.1366L11.5862 7.40695C11.4139 7.57899 11.1805 7.67562 10.937 7.67562C10.6936 7.67562 10.4601 7.57899 10.2878 7.40695L6.59305 3.71218C6.50773 3.62687 6.44006 3.52559 6.39388 3.41413C6.34771 3.30267 6.32395 3.1832 6.32395 3.06255C6.32395 2.9419 6.34771 2.82244 6.39388 2.71097C6.44006 2.59951 6.50773 2.49823 6.59305 2.41293L7.12762 1.87923C7.73621 1.27058 8.54616 0.905164 9.40521 0.851675C10.2643 0.798185 11.1133 1.0603 11.7927 1.58876L13.252 0.12852C13.2927 0.0877808 13.3409 0.055459 13.3941 0.0334055C13.4472 0.0113519 13.5042 0 13.5618 0C13.6193 0 13.6763 0.0113519 13.7294 0.0334055C13.7826 0.055459 13.8308 0.0877808 13.8715 0.12852ZM11.497 2.49167C10.9983 1.99645 10.3237 1.71897 9.62093 1.71995C8.91813 1.72094 8.24435 2.00031 7.74706 2.49692L7.48459 2.75939C7.44477 2.7992 7.41319 2.84647 7.39164 2.89848C7.3701 2.9505 7.35901 3.00625 7.35901 3.06255C7.35901 3.11885 7.3701 3.17461 7.39164 3.22662C7.41319 3.27864 7.44477 3.3259 7.48459 3.36571L10.6343 6.51541C10.8005 6.68252 11.0717 6.68339 11.2389 6.51716L11.2406 6.51541L11.5031 6.25294C11.9999 5.75576 12.2794 5.08194 12.2804 4.37907C12.2814 3.67621 12.0038 3.00161 11.5083 2.50304L11.5022 2.49779L11.497 2.49167ZM6.43469 5.81635C6.5167 5.89839 6.56277 6.00964 6.56277 6.12564C6.56277 6.24163 6.5167 6.35288 6.43469 6.43492L4.9937 7.87503L6.12497 9.0063L7.56508 7.56531C7.60575 7.52464 7.65404 7.49237 7.70718 7.47036C7.76032 7.44835 7.81728 7.43702 7.8748 7.43702C7.93232 7.43702 7.98928 7.44835 8.04242 7.47036C8.09556 7.49237 8.14385 7.52464 8.18452 7.56531C8.22519 7.60598 8.25746 7.65427 8.27947 7.70741C8.30148 7.76055 8.31281 7.81751 8.31281 7.87503C8.31281 7.93255 8.30148 7.98951 8.27947 8.04265C8.25746 8.09579 8.22519 8.14408 8.18452 8.18475L6.74353 9.62486L7.13462 10.016C7.37905 10.2604 7.51637 10.592 7.51637 10.9377C7.51637 11.2834 7.37905 11.6149 7.13462 11.8594L6.87215 12.1219C6.26356 12.7305 5.45361 13.0959 4.59456 13.1494C3.7355 13.2029 2.88649 12.9408 2.20709 12.4123L0.747731 13.8717C0.665588 13.9539 0.554179 14 0.438011 14C0.321843 14 0.210433 13.9539 0.12829 13.8717C0.0461473 13.7896 1.73103e-09 13.6782 0 13.562C-1.73103e-09 13.4458 0.0461473 13.3344 0.12829 13.2523L1.58853 11.7929C1.0602 11.1137 0.798081 10.2649 0.851407 9.40606C0.904732 8.54721 1.26984 7.73738 1.87812 7.12873L2.1406 6.86625C2.26166 6.74509 2.40542 6.64898 2.56365 6.5834C2.72188 6.51782 2.89148 6.48407 3.06276 6.48407C3.23404 6.48407 3.40364 6.51782 3.56187 6.5834C3.7201 6.64898 3.86386 6.74509 3.98492 6.86625L4.37513 7.25646L5.81525 5.81548C5.85588 5.77474 5.90416 5.74242 5.9573 5.72036C6.01045 5.69831 6.06743 5.68696 6.12497 5.68696C6.18251 5.68696 6.23948 5.69831 6.29263 5.72036C6.34578 5.74242 6.39405 5.77561 6.43469 5.81635ZM2.50194 11.5077C3.00043 12.0035 3.67515 12.2815 4.37823 12.2806C5.0813 12.2798 5.75538 12.0003 6.25271 11.5033L6.51518 11.2408C6.555 11.201 6.58658 11.1538 6.60812 11.1017C6.62967 11.0497 6.64076 10.994 6.64076 10.9377C6.64076 10.8814 6.62967 10.8256 6.60812 10.7736C6.58658 10.7216 6.555 10.6743 6.51518 10.6345L3.36548 7.48482C3.28512 7.40468 3.17625 7.35967 3.06276 7.35967C2.94927 7.35967 2.8404 7.40468 2.76004 7.48482L2.49756 7.74729C1.99984 8.24538 1.72025 8.92072 1.72025 9.62486C1.72025 10.329 1.99984 11.0043 2.49756 11.5024L2.50194 11.5077Z" fill="url(#paint0_linear_215_39)"/>
<defs>
<linearGradient id="paint0_linear_215_39" x1="-1.41239e-07" y1="-1.41233e-07" x2="14" y2="14" gradientUnits="userSpaceOnUse">
<stop stop-color="#39D0D8" stop-opacity="0.8"/>
<stop offset="1" stop-color="#39D0D8" stop-opacity="0.6"/>
</linearGradient>
</defs>
</svg>
